<?xml version="1.0" encoding="utf-8"?>
<!-- Generator: Adobe Illustrator 22.0.1, SVG Export Plug-In . SVG Version: 6.00 Build 0)  -->
<svg version="1.1" id="레이어_1" xmlns="http://www.w3.org/2000/svg" xmlns:xlink="http://www.w3.org/1999/xlink" x="0px"
	 y="0px" viewBox="0 0 31 44.3" style="enable-background:new 0 0 31 44.3;" xml:space="preserve">
<style type="text/css">
	.st0{fill:#FFFFFF;stroke:#231815;stroke-miterlimit:10;}
	.st1{opacity:0.3;fill:#E22A05;enable-background:new    ;}
	.st2{fill:#E22A05;}
</style>
<circle class="st0" cx="15.6" cy="12.9" r="9"/>
<ellipse class="st1" cx="15.6" cy="37.8" rx="15.3" ry="3.7"/>
<g>
	<path class="st2" d="M27.6,16.6L27.6,16.6c0.4-1.2,0.6-2.5,0.6-3.8c0-7.2-6.1-13-13.4-12.5C8.5,0.7,3.5,5.7,3.1,11.9
		c-0.1,1.6,0.1,3.2,0.6,4.6l0,0c0,0,4.3,12,10.4,20.5c0.7,1.3,2.5,1.3,3.2,0l0,0l0,0C23.3,28.6,27.6,16.6,27.6,16.6L27.6,16.6
		L27.6,16.6z M15.6,20.2c-4,0-7.3-3.3-7.3-7.3s3.3-7.3,7.3-7.3s7.3,3.3,7.3,7.3S19.6,20.2,15.6,20.2z"/>
	<polygon class="st2" points="15.6,16.6 15.6,16.6 15.6,16.6 	"/>
	<path class="st2" d="M15.6,16.6L15.6,16.6L15.6,16.6z"/>
	<path class="st2" d="M15.6,16.6L15.6,16.6L15.6,16.6z"/>
	<polygon class="st2" points="15.6,16.6 15.6,16.6 15.6,16.6 	"/>
</g>
<path class="st2" d="M19.4,9c-0.1-0.1-0.2-0.1-0.3-0.1h-5.5c-0.2,0-0.4,0.2-0.4,0.3l-1.5,7.4c0,0.1,0,0.2,0.1,0.3
	c0.1,0.1,0.2,0.1,0.3,0.1h1.5c0.2,0,0.4-0.2,0.4-0.3l0.5-2.5h3.2c0.2,0,0.4-0.2,0.4-0.3l0.2-1.1c0-0.1,0-0.2-0.1-0.3
	c-0.1-0.1-0.2-0.1-0.3-0.1h-3.2l0.3-1.6h3.7c0.2,0,0.4-0.2,0.4-0.3l0.2-1.1C19.5,9.2,19.5,9,19.4,9z"/>
</svg>
